STARTFONT 2.1
FONT -FontForge-Mecha-Book-R-Normal--16-150-75-75-P-63-ISO10646-1
SIZE 15 75 75
FONTBOUNDINGBOX 13 16 0 -2
COMMENT "Generated by fontforge, http://fontforge.sourceforge.net"
COMMENT "Copyright CaptainFalcon 2012"
STARTPROPERTIES 39
FOUNDRY "FontForge"
FAMILY_NAME "Mecha"
WEIGHT_NAME "Book"
SLANT "R"
SETWIDTH_NAME "Normal"
ADD_STYLE_NAME ""
PIXEL_SIZE 16
POINT_SIZE 150
RESOLUTION_X 75
RESOLUTION_Y 75
SPACING "P"
AVERAGE_WIDTH 63
CHARSET_REGISTRY "ISO10646"
CHARSET_ENCODING "1"
FONTNAME_REGISTRY ""
CHARSET_COLLECTIONS "ISO10646-1"
FONT_NAME "Mecha"
FACE_NAME "Mecha"
COPYRIGHT "Copyright CaptainFalcon 2012"
FONT_VERSION "1.0"
FONT_ASCENT 13
FONT_DESCENT 3
UNDERLINE_POSITION 1
UNDERLINE_THICKNESS 1
X_HEIGHT 7
CAP_HEIGHT 10
RAW_ASCENT 799
RAW_DESCENT 200
NORM_SPACE 4
RELATIVE_WEIGHT 40
RELATIVE_SETWIDTH 50
SUPERSCRIPT_X 0
SUPERSCRIPT_Y 8
SUPERSCRIPT_SIZE 8
SUBSCRIPT_X 0
SUBSCRIPT_Y -1
SUBSCRIPT_SIZE 8
AVG_LOWERCASE_WIDTH 66
AVG_UPPERCASE_WIDTH 68
ENDPROPERTIES
CHARS 196
STARTCHAR space
ENCODING 32
SWIDTH 250 0
DWIDTH 4 0
BBX 1 1 0 0
BITMAP
00
ENDCHAR
STARTCHAR exclam
ENCODING 33
SWIDTH 187 0
DWIDTH 3 0
BBX 1 11 1 0
BITMAP
80
80
80
80
80
80
80
80
00
00
80
ENDCHAR
STARTCHAR quotedbl
ENCODING 34
SWIDTH 312 0
DWIDTH 5 0
BBX 3 3 1 8
BITMAP
A0
A0
A0
ENDCHAR
STARTCHAR numbersign
ENCODING 35
SWIDTH 500 0
DWIDTH 8 0
BBX 6 11 1 0
BITMAP
48
48
48
FC
48
48
48
48
FC
48
48
ENDCHAR
STARTCHAR dollar
ENCODING 36
SWIDTH 437 0
DWIDTH 7 0
BBX 5 11 1 0
BITMAP
20
F8
80
80
80
F8
08
08
08
F8
20
ENDCHAR
STARTCHAR percent
ENCODING 37
SWIDTH 437 0
DWIDTH 7 0
BBX 5 11 1 0
BITMAP
C8
C8
10
10
20
20
40
40
80
98
18
ENDCHAR
STARTCHAR ampersand
ENCODING 38
SWIDTH 437 0
DWIDTH 7 0
BBX 5 11 1 0
BITMAP
F8
80
80
80
88
78
88
88
88
88
F8
ENDCHAR
STARTCHAR quotesingle
ENCODING 39
SWIDTH 187 0
DWIDTH 3 0
BBX 1 2 1 9
BITMAP
80
80
ENDCHAR
STARTCHAR parenleft
ENCODING 40
SWIDTH 250 0
DWIDTH 4 0
BBX 2 13 1 -1
BITMAP
40
80
80
80
80
80
80
80
80
80
80
80
40
ENDCHAR
STARTCHAR parenright
ENCODING 41
SWIDTH 250 0
DWIDTH 4 0
BBX 2 13 1 -1
BITMAP
80
40
40
40
40
40
40
40
40
40
40
40
80
ENDCHAR
STARTCHAR asterisk
ENCODING 42
SWIDTH 312 0
DWIDTH 5 0
BBX 3 3 1 8
BITMAP
A0
40
A0
ENDCHAR
STARTCHAR plus
ENCODING 43
SWIDTH 437 0
DWIDTH 7 0
BBX 5 5 1 2
BITMAP
20
20
F8
20
20
ENDCHAR
STARTCHAR comma
ENCODING 44
SWIDTH 187 0
DWIDTH 3 0
BBX 1 3 1 -2
BITMAP
80
80
80
ENDCHAR
STARTCHAR hyphen
ENCODING 45
SWIDTH 437 0
DWIDTH 7 0
BBX 5 1 1 4
BITMAP
F8
ENDCHAR
STARTCHAR period
ENCODING 46
SWIDTH 187 0
DWIDTH 3 0
BBX 1 1 1 0
BITMAP
80
ENDCHAR
STARTCHAR slash
ENCODING 47
SWIDTH 500 0
DWIDTH 8 0
BBX 6 12 1 0
BITMAP
04
04
08
08
10
10
20
20
40
40
80
80
ENDCHAR
STARTCHAR zero
ENCODING 48
SWIDTH 437 0
DWIDTH 7 0
BBX 5 11 1 0
BITMAP
F8
88
88
88
C8
A8
98
88
88
88
F8
ENDCHAR
STARTCHAR one
ENCODING 49
SWIDTH 250 0
DWIDTH 4 0
BBX 2 11 1 0
BITMAP
C0
40
40
40
40
40
40
40
40
40
40
ENDCHAR
STARTCHAR two
ENCODING 50
SWIDTH 437 0
DWIDTH 7 0
BBX 5 11 1 0
BITMAP
F8
08
08
08
08
78
80
80
80
80
F8
ENDCHAR
STARTCHAR three
ENCODING 51
SWIDTH 437 0
DWIDTH 7 0
BBX 5 11 1 0
BITMAP
F8
08
08
08
08
38
08
08
08
08
F8
ENDCHAR
STARTCHAR four
ENCODING 52
SWIDTH 437 0
DWIDTH 7 0
BBX 5 11 1 0
BITMAP
88
88
88
88
88
F8
08
08
08
08
08
ENDCHAR
STARTCHAR five
ENCODING 53
SWIDTH 437 0
DWIDTH 7 0
BBX 5 11 1 0
BITMAP
F8
80
80
80
80
F0
08
08
08
08
F8
ENDCHAR
STARTCHAR six
ENCODING 54
SWIDTH 437 0
DWIDTH 7 0
BBX 5 11 1 0
BITMAP
F8
80
80
80
80
F8
88
88
88
88
F8
ENDCHAR
STARTCHAR seven
ENCODING 55
SWIDTH 437 0
DWIDTH 7 0
BBX 5 11 1 0
BITMAP
F8
08
08
08
08
10
20
20
20
20
20
ENDCHAR
STARTCHAR eight
ENCODING 56
SWIDTH 437 0
DWIDTH 7 0
BBX 5 11 1 0
BITMAP
F8
88
88
88
88
F8
88
88
88
88
F8
ENDCHAR
STARTCHAR nine
ENCODING 57
SWIDTH 437 0
DWIDTH 7 0
BBX 5 11 1 0
BITMAP
F8
88
88
88
88
F8
08
08
08
08
F8
ENDCHAR
STARTCHAR colon
ENCODING 58
SWIDTH 187 0
DWIDTH 3 0
BBX 1 8 1 0
BITMAP
80
00
00
00
00
00
00
80
ENDCHAR
STARTCHAR semicolon
ENCODING 59
SWIDTH 187 0
DWIDTH 3 0
BBX 1 10 1 -2
BITMAP
80
00
00
00
00
00
00
80
80
80
ENDCHAR
STARTCHAR less
ENCODING 60
SWIDTH 375 0
DWIDTH 6 0
BBX 4 5 1 2
BITMAP
30
40
80
40
30
ENDCHAR
STARTCHAR equal
ENCODING 61
SWIDTH 437 0
DWIDTH 7 0
BBX 5 3 1 3
BITMAP
F8
00
F8
ENDCHAR
STARTCHAR greater
ENCODING 62
SWIDTH 375 0
DWIDTH 6 0
BBX 4 5 1 2
BITMAP
C0
20
10
20
C0
ENDCHAR
STARTCHAR question
ENCODING 63
SWIDTH 437 0
DWIDTH 7 0
BBX 5 11 1 0
BITMAP
F8
88
08
08
08
10
20
20
00
00
20
ENDCHAR
STARTCHAR at
ENCODING 64
SWIDTH 937 0
DWIDTH 15 0
BBX 11 11 2 0
BITMAP
FFE0
8020
8020
9F20
8120
8120
9F20
9120
9120
9120
9FE0
ENDCHAR
STARTCHAR A
ENCODING 65
SWIDTH 437 0
DWIDTH 7 0
BBX 5 11 1 0
BITMAP
F8
88
88
88
88
F8
88
88
88
88
88
ENDCHAR
STARTCHAR B
ENCODING 66
SWIDTH 437 0
DWIDTH 7 0
BBX 5 11 1 0
BITMAP
F8
88
88
88
88
F0
88
88
88
88
F8
ENDCHAR
STARTCHAR C
ENCODING 67
SWIDTH 437 0
DWIDTH 7 0
BBX 5 11 1 0
BITMAP
F8
80
80
80
80
80
80
80
80
80
F8
ENDCHAR
STARTCHAR D
ENCODING 68
SWIDTH 437 0
DWIDTH 7 0
BBX 5 11 1 0
BITMAP
F0
88
88
88
88
88
88
88
88
88
F0
ENDCHAR
STARTCHAR E
ENCODING 69
SWIDTH 437 0
DWIDTH 7 0
BBX 5 11 1 0
BITMAP
F8
80
80
80
80
F0
80
80
80
80
F8
ENDCHAR
STARTCHAR F
ENCODING 70
SWIDTH 437 0
DWIDTH 7 0
BBX 5 11 1 0
BITMAP
F8
80
80
80
80
F0
80
80
80
80
80
ENDCHAR
STARTCHAR G
ENCODING 71
SWIDTH 437 0
DWIDTH 7 0
BBX 5 11 1 0
BITMAP
F8
80
80
80
80
98
88
88
88
88
F8
ENDCHAR
STARTCHAR H
ENCODING 72
SWIDTH 437 0
DWIDTH 7 0
BBX 5 11 1 0
BITMAP
88
88
88
88
88
F8
88
88
88
88
88
ENDCHAR
STARTCHAR I
ENCODING 73
SWIDTH 187 0
DWIDTH 3 0
BBX 1 11 1 0
BITMAP
80
80
80
80
80
80
80
80
80
80
80
ENDCHAR
STARTCHAR J
ENCODING 74
SWIDTH 437 0
DWIDTH 7 0
BBX 5 11 1 0
BITMAP
38
08
08
08
08
08
08
08
08
08
F8
ENDCHAR
STARTCHAR K
ENCODING 75
SWIDTH 437 0
DWIDTH 7 0
BBX 5 11 1 0
BITMAP
88
88
88
88
88
F0
88
88
88
88
88
ENDCHAR
STARTCHAR L
ENCODING 76
SWIDTH 437 0
DWIDTH 7 0
BBX 5 11 1 0
BITMAP
80
80
80
80
80
80
80
80
80
80
F8
ENDCHAR
STARTCHAR M
ENCODING 77
SWIDTH 562 0
DWIDTH 9 0
BBX 7 11 1 0
BITMAP
FE
92
92
92
92
82
82
82
82
82
82
ENDCHAR
STARTCHAR N
ENCODING 78
SWIDTH 437 0
DWIDTH 7 0
BBX 5 11 1 0
BITMAP
F8
88
88
88
88
88
88
88
88
88
88
ENDCHAR
STARTCHAR O
ENCODING 79
SWIDTH 437 0
DWIDTH 7 0
BBX 5 11 1 0
BITMAP
F8
88
88
88
88
88
88
88
88
88
F8
ENDCHAR
STARTCHAR P
ENCODING 80
SWIDTH 437 0
DWIDTH 7 0
BBX 5 11 1 0
BITMAP
F8
88
88
88
88
F8
80
80
80
80
80
ENDCHAR
STARTCHAR Q
ENCODING 81
SWIDTH 437 0
DWIDTH 7 0
BBX 5 13 1 -2
BITMAP
F8
88
88
88
88
88
88
88
88
88
F8
00
20
ENDCHAR
STARTCHAR R
ENCODING 82
SWIDTH 437 0
DWIDTH 7 0
BBX 5 11 1 0
BITMAP
F8
88
88
88
88
F0
88
88
88
88
88
ENDCHAR
STARTCHAR S
ENCODING 83
SWIDTH 437 0
DWIDTH 7 0
BBX 5 11 1 0
BITMAP
F8
80
80
80
80
F8
08
08
08
08
F8
ENDCHAR
STARTCHAR T
ENCODING 84
SWIDTH 437 0
DWIDTH 7 0
BBX 5 11 1 0
BITMAP
F8
20
20
20
20
20
20
20
20
20
20
ENDCHAR
STARTCHAR U
ENCODING 85
SWIDTH 437 0
DWIDTH 7 0
BBX 5 11 1 0
BITMAP
88
88
88
88
88
88
88
88
88
88
F8
ENDCHAR
STARTCHAR V
ENCODING 86
SWIDTH 437 0
DWIDTH 7 0
BBX 5 11 1 0
BITMAP
88
88
88
88
88
88
88
88
48
28
18
ENDCHAR
STARTCHAR W
ENCODING 87
SWIDTH 562 0
DWIDTH 9 0
BBX 7 11 1 0
BITMAP
82
82
82
82
82
82
92
92
92
92
FE
ENDCHAR
STARTCHAR X
ENCODING 88
SWIDTH 437 0
DWIDTH 7 0
BBX 5 11 1 0
BITMAP
88
88
88
88
50
20
50
88
88
88
88
ENDCHAR
STARTCHAR Y
ENCODING 89
SWIDTH 437 0
DWIDTH 7 0
BBX 5 11 1 0
BITMAP
88
88
88
88
88
70
20
20
20
20
20
ENDCHAR
STARTCHAR Z
ENCODING 90
SWIDTH 437 0
DWIDTH 7 0
BBX 5 11 1 0
BITMAP
F8
08
08
08
10
20
40
80
80
80
F8
ENDCHAR
STARTCHAR bracketleft
ENCODING 91
SWIDTH 250 0
DWIDTH 4 0
BBX 2 13 1 -1
BITMAP
C0
80
80
80
80
80
80
80
80
80
80
80
C0
ENDCHAR
STARTCHAR backslash
ENCODING 92
SWIDTH 500 0
DWIDTH 8 0
BBX 6 12 1 0
BITMAP
80
80
40
40
20
20
10
10
08
08
04
04
ENDCHAR
STARTCHAR bracketright
ENCODING 93
SWIDTH 250 0
DWIDTH 4 0
BBX 2 13 1 -1
BITMAP
C0
40
40
40
40
40
40
40
40
40
40
40
C0
ENDCHAR
STARTCHAR asciicircum
ENCODING 94
SWIDTH 437 0
DWIDTH 7 0
BBX 5 4 1 7
BITMAP
20
50
88
88
ENDCHAR
STARTCHAR underscore
ENCODING 95
SWIDTH 437 0
DWIDTH 7 0
BBX 5 1 1 -2
BITMAP
F8
ENDCHAR
STARTCHAR grave
ENCODING 96
SWIDTH 250 0
DWIDTH 4 0
BBX 2 2 1 12
BITMAP
80
40
ENDCHAR
STARTCHAR a
ENCODING 97
SWIDTH 437 0
DWIDTH 7 0
BBX 5 8 1 0
BITMAP
F8
08
08
F8
88
88
88
F8
ENDCHAR
STARTCHAR b
ENCODING 98
SWIDTH 437 0
DWIDTH 7 0
BBX 5 11 1 0
BITMAP
80
80
80
F8
88
88
88
88
88
88
F8
ENDCHAR
STARTCHAR c
ENCODING 99
SWIDTH 437 0
DWIDTH 7 0
BBX 5 8 1 0
BITMAP
F8
80
80
80
80
80
80
F8
ENDCHAR
STARTCHAR d
ENCODING 100
SWIDTH 437 0
DWIDTH 7 0
BBX 5 11 1 0
BITMAP
08
08
08
F8
88
88
88
88
88
88
F8
ENDCHAR
STARTCHAR e
ENCODING 101
SWIDTH 437 0
DWIDTH 7 0
BBX 5 8 1 0
BITMAP
F8
88
88
88
F8
80
80
F8
ENDCHAR
STARTCHAR f
ENCODING 102
SWIDTH 375 0
DWIDTH 6 0
BBX 4 11 1 0
BITMAP
F0
80
80
F0
80
80
80
80
80
80
80
ENDCHAR
STARTCHAR g
ENCODING 103
SWIDTH 437 0
DWIDTH 7 0
BBX 5 10 1 -2
BITMAP
F8
88
88
88
88
88
F8
08
08
F8
ENDCHAR
STARTCHAR h
ENCODING 104
SWIDTH 437 0
DWIDTH 7 0
BBX 5 11 1 0
BITMAP
80
80
80
F8
88
88
88
88
88
88
88
ENDCHAR
STARTCHAR i
ENCODING 105
SWIDTH 187 0
DWIDTH 3 0
BBX 1 11 1 0
BITMAP
80
00
00
80
80
80
80
80
80
80
80
ENDCHAR
STARTCHAR j
ENCODING 106
SWIDTH 187 0
DWIDTH 3 0
BBX 1 13 1 -2
BITMAP
80
00
00
80
80
80
80
80
80
80
80
80
80
ENDCHAR
STARTCHAR k
ENCODING 107
SWIDTH 437 0
DWIDTH 7 0
BBX 5 11 1 0
BITMAP
80
80
80
88
88
88
F0
88
88
88
88
ENDCHAR
STARTCHAR l
ENCODING 108
SWIDTH 187 0
DWIDTH 3 0
BBX 1 11 1 0
BITMAP
80
80
80
80
80
80
80
80
80
80
80
ENDCHAR
STARTCHAR m
ENCODING 109
SWIDTH 562 0
DWIDTH 9 0
BBX 7 8 1 0
BITMAP
FE
92
92
92
92
92
92
92
ENDCHAR
STARTCHAR n
ENCODING 110
SWIDTH 437 0
DWIDTH 7 0
BBX 5 8 1 0
BITMAP
F8
88
88
88
88
88
88
88
ENDCHAR
STARTCHAR o
ENCODING 111
SWIDTH 437 0
DWIDTH 7 0
BBX 5 8 1 0
BITMAP
F8
88
88
88
88
88
88
F8
ENDCHAR
STARTCHAR p
ENCODING 112
SWIDTH 437 0
DWIDTH 7 0
BBX 5 10 1 -2
BITMAP
F8
88
88
88
88
88
88
F8
80
80
ENDCHAR
STARTCHAR q
ENCODING 113
SWIDTH 437 0
DWIDTH 7 0
BBX 5 10 1 -2
BITMAP
F8
88
88
88
88
88
88
F8
08
08
ENDCHAR
STARTCHAR r
ENCODING 114
SWIDTH 375 0
DWIDTH 6 0
BBX 4 8 1 0
BITMAP
F0
80
80
80
80
80
80
80
ENDCHAR
STARTCHAR s
ENCODING 115
SWIDTH 437 0
DWIDTH 7 0
BBX 5 8 1 0
BITMAP
F8
80
80
F8
08
08
08
F8
ENDCHAR
STARTCHAR t
ENCODING 116
SWIDTH 312 0
DWIDTH 5 0
BBX 3 11 1 0
BITMAP
80
80
80
E0
80
80
80
80
80
80
E0
ENDCHAR
STARTCHAR u
ENCODING 117
SWIDTH 437 0
DWIDTH 7 0
BBX 5 8 1 0
BITMAP
88
88
88
88
88
88
88
F8
ENDCHAR
STARTCHAR v
ENCODING 118
SWIDTH 437 0
DWIDTH 7 0
BBX 5 8 1 0
BITMAP
88
88
88
88
88
88
48
38
ENDCHAR
STARTCHAR w
ENCODING 119
SWIDTH 562 0
DWIDTH 9 0
BBX 7 8 1 0
BITMAP
92
92
92
92
92
92
92
FE
ENDCHAR
STARTCHAR x
ENCODING 120
SWIDTH 437 0
DWIDTH 7 0
BBX 5 8 1 0
BITMAP
88
88
50
20
50
88
88
88
ENDCHAR
STARTCHAR y
ENCODING 121
SWIDTH 437 0
DWIDTH 7 0
BBX 5 10 1 -2
BITMAP
88
88
88
88
88
88
F8
08
08
F8
ENDCHAR
STARTCHAR z
ENCODING 122
SWIDTH 437 0
DWIDTH 7 0
BBX 5 8 1 0
BITMAP
F8
08
10
20
40
80
80
F8
ENDCHAR
STARTCHAR braceleft
ENCODING 123
SWIDTH 312 0
DWIDTH 4 0
BBX 3 13 1 -1
BITMAP
E0
C0
C0
C0
C0
C0
C0
C0
C0
C0
C0
C0
C0
ENDCHAR
STARTCHAR bar
ENCODING 124
SWIDTH 187 0
DWIDTH 3 0
BBX 1 15 1 -2
BITMAP
80
80
80
80
80
80
80
80
80
80
80
80
80
80
80
ENDCHAR
STARTCHAR braceright
ENCODING 125
SWIDTH 312 0
DWIDTH 4 0
BBX 2 13 1 -1
BITMAP
80
80
80
80
80
80
C0
C0
C0
C0
C0
C0
C0
ENDCHAR
STARTCHAR asciitilde
ENCODING 126
SWIDTH 437 0
DWIDTH 7 0
BBX 5 3 1 3
BITMAP
08
F8
80
ENDCHAR
STARTCHAR exclamdown
ENCODING 161
SWIDTH 187 0
DWIDTH 3 0
BBX 1 11 1 0
BITMAP
80
00
00
80
80
80
80
80
80
80
80
ENDCHAR
STARTCHAR cent
ENCODING 162
SWIDTH 437 0
DWIDTH 7 0
BBX 5 11 1 0
BITMAP
20
20
F8
80
80
80
80
80
F8
20
20
ENDCHAR
STARTCHAR sterling
ENCODING 163
SWIDTH 437 0
DWIDTH 7 0
BBX 5 10 1 1
BITMAP
F0
90
80
80
80
E0
80
80
88
F8
ENDCHAR
STARTCHAR currency
ENCODING 164
SWIDTH 437 0
DWIDTH 7 0
BBX 5 5 1 3
BITMAP
88
70
50
70
88
ENDCHAR
STARTCHAR yen
ENCODING 165
SWIDTH 437 0
DWIDTH 7 0
BBX 5 10 1 1
BITMAP
88
88
88
88
70
20
F8
20
F8
20
ENDCHAR
STARTCHAR brokenbar
ENCODING 166
SWIDTH 187 0
DWIDTH 3 0
BBX 1 15 1 -2
BITMAP
80
80
80
80
80
80
00
00
00
80
80
80
80
80
80
ENDCHAR
STARTCHAR dieresis
ENCODING 168
SWIDTH 312 0
DWIDTH 5 0
BBX 3 1 1 12
BITMAP
A0
ENDCHAR
STARTCHAR copyright
ENCODING 169
SWIDTH 562 0
DWIDTH 9 0
BBX 7 8 1 3
BITMAP
FE
82
BA
A2
A2
BA
82
FE
ENDCHAR
STARTCHAR logicalnot
ENCODING 172
SWIDTH 437 0
DWIDTH 7 0
BBX 5 3 1 3
BITMAP
F8
08
08
ENDCHAR
STARTCHAR registered
ENCODING 174
SWIDTH 562 0
DWIDTH 9 0
BBX 7 8 1 3
BITMAP
FE
82
BA
AA
B2
AA
82
FE
ENDCHAR
STARTCHAR macron
ENCODING 175
SWIDTH 437 0
DWIDTH 7 0
BBX 5 1 1 12
BITMAP
F8
ENDCHAR
STARTCHAR degree
ENCODING 176
SWIDTH 312 0
DWIDTH 5 0
BBX 3 3 1 11
BITMAP
E0
A0
E0
ENDCHAR
STARTCHAR plusminus
ENCODING 177
SWIDTH 437 0
DWIDTH 7 0
BBX 5 7 1 0
BITMAP
20
20
F8
20
20
00
F8
ENDCHAR
STARTCHAR acute
ENCODING 180
SWIDTH 250 0
DWIDTH 4 0
BBX 2 2 1 11
BITMAP
40
80
ENDCHAR
STARTCHAR mu
ENCODING 181
SWIDTH 437 0
DWIDTH 7 0
BBX 5 10 1 -2
BITMAP
88
88
88
88
88
88
88
F8
80
80
ENDCHAR
STARTCHAR paragraph
ENCODING 182
SWIDTH 562 0
DWIDTH 9 0
BBX 7 11 1 0
BITMAP
7E
FE
FA
FA
FA
7A
0A
0A
0A
0A
0A
ENDCHAR
STARTCHAR periodcentered
ENCODING 183
SWIDTH 187 0
DWIDTH 3 0
BBX 1 1 1 5
BITMAP
80
ENDCHAR
STARTCHAR cedilla
ENCODING 184
SWIDTH 312 0
DWIDTH 5 0
BBX 2 2 2 -2
BITMAP
40
C0
ENDCHAR
STARTCHAR questiondown
ENCODING 191
SWIDTH 437 0
DWIDTH 7 0
BBX 5 11 1 0
BITMAP
20
00
00
20
20
40
80
80
80
88
F8
ENDCHAR
STARTCHAR Agrave
ENCODING 192
SWIDTH 437 0
DWIDTH 7 0
BBX 5 14 1 0
BITMAP
40
20
00
F8
88
88
88
88
F8
88
88
88
88
88
ENDCHAR
STARTCHAR Aacute
ENCODING 193
SWIDTH 437 0
DWIDTH 7 0
BBX 5 14 1 0
BITMAP
10
20
00
F8
88
88
88
88
F8
88
88
88
88
88
ENDCHAR
STARTCHAR Acircumflex
ENCODING 194
SWIDTH 437 0
DWIDTH 7 0
BBX 5 14 1 0
BITMAP
20
50
00
F8
88
88
88
88
F8
88
88
88
88
88
ENDCHAR
STARTCHAR Atilde
ENCODING 195
SWIDTH 437 0
DWIDTH 7 0
BBX 5 14 1 0
BITMAP
10
70
40
F8
88
88
88
88
F8
88
88
88
88
88
ENDCHAR
STARTCHAR Adieresis
ENCODING 196
SWIDTH 437 0
DWIDTH 7 0
BBX 5 13 1 0
BITMAP
50
00
F8
88
88
88
88
F8
88
88
88
88
88
ENDCHAR
STARTCHAR Aring
ENCODING 197
SWIDTH 437 0
DWIDTH 7 0
BBX 5 13 1 0
BITMAP
70
50
F8
88
88
88
88
F8
88
88
88
88
88
ENDCHAR
STARTCHAR AE
ENCODING 198
SWIDTH 687 0
DWIDTH 11 0
BBX 9 11 1 0
BITMAP
FF80
8800
8800
8800
8800
FF00
8800
8800
8800
8800
8F80
ENDCHAR
STARTCHAR Ccedilla
ENCODING 199
SWIDTH 437 0
DWIDTH 7 0
BBX 5 13 1 -2
BITMAP
F8
80
80
80
80
80
80
80
80
80
F8
20
60
ENDCHAR
STARTCHAR Egrave
ENCODING 200
SWIDTH 437 0
DWIDTH 7 0
BBX 5 14 1 0
BITMAP
40
20
00
F8
80
80
80
80
F0
80
80
80
80
F8
ENDCHAR
STARTCHAR Eacute
ENCODING 201
SWIDTH 437 0
DWIDTH 7 0
BBX 5 14 1 0
BITMAP
10
20
00
F8
80
80
80
80
F0
80
80
80
80
F8
ENDCHAR
STARTCHAR Ecircumflex
ENCODING 202
SWIDTH 437 0
DWIDTH 7 0
BBX 5 14 1 0
BITMAP
20
50
00
F8
80
80
80
80
F0
80
80
80
80
F8
ENDCHAR
STARTCHAR Edieresis
ENCODING 203
SWIDTH 437 0
DWIDTH 7 0
BBX 5 13 1 0
BITMAP
50
00
F8
80
80
80
80
F0
80
80
80
80
F8
ENDCHAR
STARTCHAR Igrave
ENCODING 204
SWIDTH 187 0
DWIDTH 3 0
BBX 2 14 0 0
BITMAP
80
40
00
40
40
40
40
40
40
40
40
40
40
40
ENDCHAR
STARTCHAR Iacute
ENCODING 205
SWIDTH 187 0
DWIDTH 3 0
BBX 2 14 1 0
BITMAP
40
80
00
80
80
80
80
80
80
80
80
80
80
80
ENDCHAR
STARTCHAR Icircumflex
ENCODING 206
SWIDTH 187 0
DWIDTH 4 0
BBX 3 14 0 0
BITMAP
40
A0
00
40
40
40
40
40
40
40
40
40
40
40
ENDCHAR
STARTCHAR Idieresis
ENCODING 207
SWIDTH 187 0
DWIDTH 4 0
BBX 3 13 0 0
BITMAP
A0
00
40
40
40
40
40
40
40
40
40
40
40
ENDCHAR
STARTCHAR Eth
ENCODING 208
SWIDTH 437 0
DWIDTH 7 0
BBX 5 11 1 0
BITMAP
F0
88
88
88
88
E8
88
88
88
88
F0
ENDCHAR
STARTCHAR Ntilde
ENCODING 209
SWIDTH 437 0
DWIDTH 7 0
BBX 5 14 1 0
BITMAP
10
70
40
F8
88
88
88
88
88
88
88
88
88
88
ENDCHAR
STARTCHAR Ograve
ENCODING 210
SWIDTH 437 0
DWIDTH 7 0
BBX 5 14 1 0
BITMAP
40
20
00
F8
88
88
88
88
88
88
88
88
88
F8
ENDCHAR
STARTCHAR Oacute
ENCODING 211
SWIDTH 437 0
DWIDTH 7 0
BBX 5 14 1 0
BITMAP
10
20
00
F8
88
88
88
88
88
88
88
88
88
F8
ENDCHAR
STARTCHAR Ocircumflex
ENCODING 212
SWIDTH 437 0
DWIDTH 7 0
BBX 5 14 1 0
BITMAP
20
50
00
F8
88
88
88
88
88
88
88
88
88
F8
ENDCHAR
STARTCHAR Otilde
ENCODING 213
SWIDTH 437 0
DWIDTH 7 0
BBX 5 14 1 0
BITMAP
10
70
40
F8
88
88
88
88
88
88
88
88
88
F8
ENDCHAR
STARTCHAR Odieresis
ENCODING 214
SWIDTH 437 0
DWIDTH 7 0
BBX 5 13 1 0
BITMAP
50
00
F8
88
88
88
88
88
88
88
88
88
F8
ENDCHAR
STARTCHAR multiply
ENCODING 215
SWIDTH 437 0
DWIDTH 7 0
BBX 5 5 1 2
BITMAP
88
50
20
50
88
ENDCHAR
STARTCHAR Oslash
ENCODING 216
SWIDTH 437 0
DWIDTH 7 0
BBX 5 13 1 -1
BITMAP
08
F8
98
98
98
A8
A8
A8
C8
C8
C8
F8
80
ENDCHAR
STARTCHAR Ugrave
ENCODING 217
SWIDTH 437 0
DWIDTH 7 0
BBX 5 14 1 0
BITMAP
40
20
00
88
88
88
88
88
88
88
88
88
88
F8
ENDCHAR
STARTCHAR Uacute
ENCODING 218
SWIDTH 437 0
DWIDTH 7 0
BBX 5 14 1 0
BITMAP
10
20
00
88
88
88
88
88
88
88
88
88
88
F8
ENDCHAR
STARTCHAR Ucircumflex
ENCODING 219
SWIDTH 437 0
DWIDTH 7 0
BBX 5 14 1 0
BITMAP
20
50
00
88
88
88
88
88
88
88
88
88
88
F8
ENDCHAR
STARTCHAR Udieresis
ENCODING 220
SWIDTH 437 0
DWIDTH 7 0
BBX 5 13 1 0
BITMAP
50
00
88
88
88
88
88
88
88
88
88
88
F8
ENDCHAR
STARTCHAR Yacute
ENCODING 221
SWIDTH 437 0
DWIDTH 7 0
BBX 5 14 1 0
BITMAP
10
20
00
88
88
88
88
88
70
20
20
20
20
20
ENDCHAR
STARTCHAR Thorn
ENCODING 222
SWIDTH 437 0
DWIDTH 7 0
BBX 5 11 1 0
BITMAP
80
80
F0
88
88
88
88
88
F0
80
80
ENDCHAR
STARTCHAR germandbls
ENCODING 223
SWIDTH 437 0
DWIDTH 7 0
BBX 5 11 1 0
BITMAP
F0
90
90
90
90
F8
88
88
88
88
B8
ENDCHAR
STARTCHAR agrave
ENCODING 224
SWIDTH 437 0
DWIDTH 7 0
BBX 5 11 1 0
BITMAP
40
20
00
F8
08
08
F8
88
88
88
F8
ENDCHAR
STARTCHAR aacute
ENCODING 225
SWIDTH 437 0
DWIDTH 7 0
BBX 5 11 1 0
BITMAP
10
20
00
F8
08
08
F8
88
88
88
F8
ENDCHAR
STARTCHAR acircumflex
ENCODING 226
SWIDTH 437 0
DWIDTH 7 0
BBX 5 11 1 0
BITMAP
20
50
00
F8
08
08
F8
88
88
88
F8
ENDCHAR
STARTCHAR atilde
ENCODING 227
SWIDTH 437 0
DWIDTH 7 0
BBX 5 11 1 0
BITMAP
10
70
40
F8
08
08
F8
88
88
88
F8
ENDCHAR
STARTCHAR adieresis
ENCODING 228
SWIDTH 437 0
DWIDTH 7 0
BBX 5 10 1 0
BITMAP
50
00
F8
08
08
F8
88
88
88
F8
ENDCHAR
STARTCHAR aring
ENCODING 229
SWIDTH 437 0
DWIDTH 7 0
BBX 5 10 1 0
BITMAP
70
50
F8
08
08
F8
88
88
88
F8
ENDCHAR
STARTCHAR ae
ENCODING 230
SWIDTH 687 0
DWIDTH 11 0
BBX 9 8 1 0
BITMAP
FF80
0880
0880
F880
8F80
8800
8800
FF80
ENDCHAR
STARTCHAR ccedilla
ENCODING 231
SWIDTH 437 0
DWIDTH 7 0
BBX 5 10 1 -2
BITMAP
F8
80
80
80
80
80
80
F8
20
60
ENDCHAR
STARTCHAR egrave
ENCODING 232
SWIDTH 437 0
DWIDTH 7 0
BBX 5 11 1 0
BITMAP
40
20
00
F8
88
88
88
F8
80
80
F8
ENDCHAR
STARTCHAR eacute
ENCODING 233
SWIDTH 437 0
DWIDTH 7 0
BBX 5 11 1 0
BITMAP
10
20
00
F8
88
88
88
F8
80
80
F8
ENDCHAR
STARTCHAR ecircumflex
ENCODING 234
SWIDTH 437 0
DWIDTH 7 0
BBX 5 11 1 0
BITMAP
20
50
00
F8
88
88
88
F8
80
80
F8
ENDCHAR
STARTCHAR edieresis
ENCODING 235
SWIDTH 437 0
DWIDTH 7 0
BBX 5 10 1 0
BITMAP
50
00
F8
88
88
88
F8
80
80
F8
ENDCHAR
STARTCHAR igrave
ENCODING 236
SWIDTH 187 0
DWIDTH 3 0
BBX 2 11 0 0
BITMAP
80
40
00
40
40
40
40
40
40
40
40
ENDCHAR
STARTCHAR iacute
ENCODING 237
SWIDTH 187 0
DWIDTH 3 0
BBX 2 11 1 0
BITMAP
40
80
00
80
80
80
80
80
80
80
80
ENDCHAR
STARTCHAR icircumflex
ENCODING 238
SWIDTH 187 0
DWIDTH 4 0
BBX 3 11 0 0
BITMAP
40
A0
00
40
40
40
40
40
40
40
40
ENDCHAR
STARTCHAR idieresis
ENCODING 239
SWIDTH 187 0
DWIDTH 4 0
BBX 3 10 0 0
BITMAP
A0
00
40
40
40
40
40
40
40
40
ENDCHAR
STARTCHAR eth
ENCODING 240
SWIDTH 437 0
DWIDTH 7 0
BBX 5 11 1 0
BITMAP
20
78
28
F8
88
88
88
88
88
88
F8
ENDCHAR
STARTCHAR ntilde
ENCODING 241
SWIDTH 437 0
DWIDTH 7 0
BBX 5 11 1 0
BITMAP
10
70
40
F8
88
88
88
88
88
88
88
ENDCHAR
STARTCHAR ograve
ENCODING 242
SWIDTH 437 0
DWIDTH 7 0
BBX 5 11 1 0
BITMAP
40
20
00
F8
88
88
88
88
88
88
F8
ENDCHAR
STARTCHAR oacute
ENCODING 243
SWIDTH 437 0
DWIDTH 7 0
BBX 5 11 1 0
BITMAP
10
20
00
F8
88
88
88
88
88
88
F8
ENDCHAR
STARTCHAR ocircumflex
ENCODING 244
SWIDTH 437 0
DWIDTH 7 0
BBX 5 11 1 0
BITMAP
20
50
00
F8
88
88
88
88
88
88
F8
ENDCHAR
STARTCHAR otilde
ENCODING 245
SWIDTH 437 0
DWIDTH 7 0
BBX 5 11 1 0
BITMAP
10
70
40
F8
88
88
88
88
88
88
F8
ENDCHAR
STARTCHAR odieresis
ENCODING 246
SWIDTH 437 0
DWIDTH 7 0
BBX 5 10 1 0
BITMAP
50
00
F8
88
88
88
88
88
88
F8
ENDCHAR
STARTCHAR divide
ENCODING 247
SWIDTH 437 0
DWIDTH 7 0
BBX 5 5 1 2
BITMAP
20
00
F8
00
20
ENDCHAR
STARTCHAR oslash
ENCODING 248
SWIDTH 437 0
DWIDTH 7 0
BBX 5 10 1 -1
BITMAP
08
F8
98
98
A8
A8
C8
C8
F8
80
ENDCHAR
STARTCHAR ugrave
ENCODING 249
SWIDTH 437 0
DWIDTH 7 0
BBX 5 11 1 0
BITMAP
40
20
00
88
88
88
88
88
88
88
F8
ENDCHAR
STARTCHAR uacute
ENCODING 250
SWIDTH 437 0
DWIDTH 7 0
BBX 5 11 1 0
BITMAP
10
20
00
88
88
88
88
88
88
88
F8
ENDCHAR
STARTCHAR ucircumflex
ENCODING 251
SWIDTH 437 0
DWIDTH 7 0
BBX 5 11 1 0
BITMAP
20
50
00
88
88
88
88
88
88
88
F8
ENDCHAR
STARTCHAR udieresis
ENCODING 252
SWIDTH 437 0
DWIDTH 7 0
BBX 5 10 1 0
BITMAP
50
00
88
88
88
88
88
88
88
F8
ENDCHAR
STARTCHAR yacute
ENCODING 253
SWIDTH 437 0
DWIDTH 7 0
BBX 5 13 1 -2
BITMAP
10
20
00
88
88
88
88
88
88
F8
08
08
F8
ENDCHAR
STARTCHAR thorn
ENCODING 254
SWIDTH 375 0
DWIDTH 6 0
BBX 4 8 1 0
BITMAP
80
E0
90
90
90
90
E0
80
ENDCHAR
STARTCHAR ydieresis
ENCODING 255
SWIDTH 437 0
DWIDTH 7 0
BBX 5 12 1 -2
BITMAP
50
00
88
88
88
88
88
88
F8
08
08
F8
ENDCHAR
STARTCHAR Ydieresis
ENCODING 376
SWIDTH 437 0
DWIDTH 7 0
BBX 5 13 1 0
BITMAP
50
00
88
88
88
88
88
70
20
20
20
20
20
ENDCHAR
STARTCHAR endash
ENCODING 8211
SWIDTH 437 0
DWIDTH 7 0
BBX 5 1 1 4
BITMAP
F8
ENDCHAR
STARTCHAR emdash
ENCODING 8212
SWIDTH 562 0
DWIDTH 9 0
BBX 7 1 1 4
BITMAP
FE
ENDCHAR
STARTCHAR quoteleft
ENCODING 8216
SWIDTH 187 0
DWIDTH 3 0
BBX 1 3 1 8
BITMAP
80
80
80
ENDCHAR
STARTCHAR quoteright
ENCODING 8217
SWIDTH 187 0
DWIDTH 3 0
BBX 1 3 1 8
BITMAP
80
80
80
ENDCHAR
STARTCHAR quotedblleft
ENCODING 8220
SWIDTH 312 0
DWIDTH 5 0
BBX 3 3 1 8
BITMAP
A0
A0
A0
ENDCHAR
STARTCHAR quotedblright
ENCODING 8221
SWIDTH 312 0
DWIDTH 5 0
BBX 3 3 1 8
BITMAP
A0
A0
A0
ENDCHAR
STARTCHAR dagger
ENCODING 8224
SWIDTH 437 0
DWIDTH 7 0
BBX 5 10 1 1
BITMAP
20
20
20
F8
20
20
20
20
20
20
ENDCHAR
STARTCHAR bullet
ENCODING 8226
SWIDTH 250 0
DWIDTH 4 0
BBX 2 2 1 4
BITMAP
C0
C0
ENDCHAR
STARTCHAR ellipsis
ENCODING 8230
SWIDTH 437 0
DWIDTH 7 0
BBX 5 1 1 0
BITMAP
A8
ENDCHAR
STARTCHAR Euro
ENCODING 8364
SWIDTH 437 0
DWIDTH 7 0
BBX 5 10 1 1
BITMAP
F8
80
80
80
E0
80
E0
80
80
F8
ENDCHAR
STARTCHAR trademark
ENCODING 8482
SWIDTH 500 0
DWIDTH 8 0
BBX 6 4 1 7
BITMAP
FC
5C
54
54
ENDCHAR
STARTCHAR notequal
ENCODING 8800
SWIDTH 437 0
DWIDTH 7 0
BBX 5 7 1 1
BITMAP
10
10
F8
20
F8
40
40
ENDCHAR
STARTCHAR lessequal
ENCODING 8804
SWIDTH 437 0
DWIDTH 7 0
BBX 5 7 1 0
BITMAP
30
40
80
40
30
00
F8
ENDCHAR
STARTCHAR greaterequal
ENCODING 8805
SWIDTH 437 0
DWIDTH 7 0
BBX 5 7 1 0
BITMAP
60
10
08
10
60
00
F8
ENDCHAR
STARTCHAR .notdef
ENCODING -1
SWIDTH 250 0
DWIDTH 4 0
BBX 1 1 0 0
BITMAP
00
ENDCHAR
STARTCHAR nonmarkingreturn
ENCODING -1
SWIDTH 125 0
DWIDTH 2 0
BBX 1 1 0 0
BITMAP
00
ENDCHAR
STARTCHAR NULL
ENCODING -1
SWIDTH 0 0
DWIDTH 0 0
BBX 1 1 0 0
BITMAP
00
ENDCHAR
ENDFONT
